# xmcd
#
# Track frame offsets:
#	150
#	21070
#	46168
#	68137
#	98556
#	105468
#	128084
#	150088
#	164604
#	185724
#	191701
#	218584
#	244514
#
# Disc length: 3386 seconds
#
# Revision: 0
# Processed by: cddbd v1.5.2PL0 Copyright (c) Steve Scherf et al.
# Submitted via: EasyCDDAExtractor 12.1.0.1
#
DISCID=9f0d380d
DTITLE=Avery Sunshine
DYEAR=2010
DGENRE=R&B
TTITLE0=All In My Head
TTITLE1=Today
TTITLE2=The Most feat Roy Ayers
TTITLE3=Ugly Part Of Me
TTITLE4=Perform Interlude
TTITLE5=Need You Now
TTITLE6=Pinin'
TTITLE7=I Got Sunshine
TTITLE8=Blessin' Me
TTITLE9=Everybody Loves int feat Roy Ayers
TTITLE10=Like This
TTITLE11=Just Not Tonight
TTITLE12=Big Mama (Hidden Track)
EXTD=
EXTT0=
EXTT1=
EXTT2=
EXTT3=
EXTT4=
EXTT5=
EXTT6=
EXTT7=
EXTT8=
EXTT9=
EXTT10=
EXTT11=
EXTT12=
PLAYORDER=
